<svg version="1.1" id="Layer_1" xmlns="http://www.w3.org/2000/svg" xmlns:xlink="http://www.w3.org/1999/xlink" x="0px" y="0px" viewBox="0 0 116.6 40.6" enable-background="new 0 0 116.6 40.6" xml:space="preserve">
	<g>
		<path fill="#FFFFFF" d="M1.3,2.7C1.4,1.9,1,1.3,0.1,1.1v-1h4.4l1.9,15.4L8.3,0.1h4.5v1c-0.6,0.1-0.9,1.2-0.9,3.1v30.2
			c0.1,0.7,0.5,1.2,1.2,1.3v1h-5v-1c0.7,0,1-0.5,1-1.3V13.5L6.6,28.7L3.9,13.5v20.8c0,1,0.4,1.5,1.3,1.6v0.9H0l0.1-0.8
			c0.8-0.1,1.2-0.7,1.2-1.7V2.7z"/>
		<path fill="#FFFFFF" d="M15.2,31.2V9.5c-0.3-6.3,1.2-9.4,4.5-9.4c3.2,0,4.7,3.1,4.6,9.3v21.8c0,3.9-1.6,6-4.8,6.4
			C16.6,37.3,15.2,35.1,15.2,31.2z M18.7,27.9c-0.1,4,0.2,5.9,0.8,5.9c0.6,0,1-2,1-5.9V8.8c0-3.8-0.3-5.6-1-5.6
			c-0.6,0-0.9,1.9-0.8,5.6V27.9z"/>
		<path fill="#FFFFFF" d="M26.7,31V9.4C26.4,3.1,27.8,0,31.1,0c3.2,0,4.7,3.1,4.6,9.3L32,12.8c0-6-0.3-9.1-1-9.1
			c-0.6,0-0.9,1.9-0.8,5.6v19.1c-0.1,4,0.2,5.9,0.8,5.9c0.6,0,1.1-1,1.5-3v-9.1c-0.2-0.6-0.8-1-1.6-1v-1h6v0.9
			c-0.8,0.1-1.3,0.5-1.5,1.3v9.1c-0.2,3.6-1.8,5.6-4.5,5.9C28.1,37.1,26.7,35,26.7,31z"/>
	</g>
	<g>
		<path fill="#FFFFFF" d="M54.3,0.7V0.1h5.7v0.5c-0.7,0.4-1.1,1.1-1.1,2v14.9h3V2.7c0-0.8-0.4-1.5-1.3-2V0.1H67v0.5
			c-0.9,0.5-1.4,1.2-1.4,2v31c0,1.4,0.4,2.3,1.3,2.6v0.5h-6.3v-0.5c0.8-0.3,1.2-1.2,1.2-2.6v-12h-2.9v12c0,1.5,0.4,2.3,1.2,2.6v0.5
			h-5.8v-0.5c0.7-0.2,1-1.1,1-2.6v-31C55.4,1.8,55,1.1,54.3,0.7z"/>
		<path fill="#FFFFFF" d="M68.7,31.2V9.5c-0.3-6.3,1.2-9.4,4.5-9.4c3.2,0,4.7,3.1,4.6,9.3v21.8c0,3.9-1.6,6-4.8,6.4
			C70.2,37.3,68.8,35.1,68.7,31.2z M72.3,27.9c-0.1,4,0.2,5.9,0.8,5.9c0.6,0,1-2,1-5.9V8.8c0-3.8-0.3-5.6-1-5.6
			c-0.6,0-0.9,1.9-0.8,5.6V27.9z"/>
		<path fill="#FFFFFF" d="M81.4,31.2V2.8c0-1-0.5-1.6-1.6-1.6v-1h4.8v28.5c-0.1,3.9,0.2,5.9,0.9,5.9c0.7,0,1-1.9,0.9-5.8v-26V0.1
			l4.4,0v1c-1,0-1.5,0.6-1.5,1.7v28.5c0,3.8-1.6,5.8-3.9,6.2C82.8,37.3,81.5,35.1,81.4,31.2z"/>
		<path fill="#FFFFFF" d="M93.6,23.9l4-2.1C97.1,29.5,97.3,33.6,98,34c0.8,0.4,1.2,0.2,1.3-0.6c0.4-3,0.4-6,0-9
			c-0.1-1.5-0.4-2.6-0.9-3.3c-2.8-4.3-4.4-7.5-4.8-9.6l-0.1-7.3c0.5-2.6,2-3.9,4.5-3.9c2.7,0,4.2,1.8,4.3,5.2l0.2,4.8l-3.7,2.4
			c0-3,0-5.7,0-8.3c0-1.2-0.3-1.9-0.9-1.9c-0.6,0-0.9,0.6-0.9,1.7l0.1,7.4c2.5,4.1,4.2,7.2,5.1,9.4c0.9,2.2,1.2,5.3,1,9.4
			c-0.2,4.5-1.9,6.7-4.8,6.7c-2.9-0.1-4.5-2.1-4.9-6V23.9z"/>
		<path fill="#FFFFFF" d="M106.6,2.4c0-0.8-0.4-1.3-1.3-1.6V0.2h11.4v12.2h-1c-0.3-3.9-0.9-6.5-1.6-7.9s-1.9-2.1-3.3-2.2v12.6
			c1.3,0.4,2.1-1.4,2.2-5.5h0.9v15.2h-1c0-4-0.7-6.2-2.1-6.5v16.6c1.2,0,2.3-0.8,3.2-2.3s1.5-4.3,1.7-8.3h1v12.6h-11.1V36
			c0.8,0,1.2-0.6,1.1-1.9V2.4z"/>
	</g>
	<linearGradient id="SVGID_1_" gradientUnits="userSpaceOnUse" x1="0" y1="39.9797" x2="116.6184" y2="39.9797">
		<stop  offset="0" style="stop-color:#FFFFFF"/>
		<stop  offset="0.5172" style="stop-color:#FFFFFF"/>
		<stop  offset="0.7094" style="stop-color:#FFFFFF;stop-opacity:0"/>
		<stop  offset="0.7488" style="stop-color:#FFFFFF;stop-opacity:0"/>
		<stop  offset="0.931" style="stop-color:#FFFFFF"/>
		<stop  offset="1" style="stop-color:#FFFFFF"/>
	</linearGradient>
	<rect x="0" y="39.3" fill="url(#SVGID_1_)" width="116.6" height="1.3"/>
</svg>
